<?xml version="1.0" standalone="no"?>
<!DOCTYPE svg PUBLIC "-//W3C//DTD SVG 20010904//EN"
 "http://www.w3.org/TR/2001/REC-SVG-20010904/DTD/svg10.dtd">
<svg version="1.0" xmlns="http://www.w3.org/2000/svg"
 width="512.000000pt" height="512.000000pt" viewBox="0 0 512.000000 512.000000"
 preserveAspectRatio="xMidYMid meet">
<metadata>
Created by potrace 1.14, written by Peter Selinger 2001-2017
</metadata>
<g transform="translate(0.000000,512.000000) scale(0.100000,-0.100000)"
fill="#000000" stroke="none">
<path d="M2257 4654 c-1 -1 -49 -4 -107 -8 -151 -8 -203 -15 -309 -37 -387
-84 -669 -284 -809 -574 -54 -111 -77 -181 -97 -295 -8 -47 -9 -234 -1 -290
50 -342 276 -628 626 -792 52 -25 111 -50 130 -57 19 -7 44 -17 55 -21 52 -22
258 -83 425 -125 283 -72 436 -113 540 -146 276 -88 396 -220 385 -421 -6
-120 -47 -208 -142 -303 -137 -138 -325 -196 -608 -191 -174 4 -201 8 -313 46
-247 84 -405 275 -474 573 l-23 98 -75 -6 c-41 -3 -93 -8 -115 -10 -22 -3 -65
-7 -95 -10 -79 -7 -159 -15 -205 -20 -22 -2 -74 -7 -115 -11 -41 -4 -82 -8
-90 -10 -8 -1 -23 -3 -33 -3 -16 -1 -18 -7 -12 -48 33 -247 122 -499 239 -677
71 -106 215 -254 312 -318 131 -87 302 -161 459 -197 28 -7 66 -16 85 -21 19
-5 67 -12 105 -16 39 -3 79 -8 90 -11 11 -2 108 -5 215 -7 328 -5 550 23 779
99 299 101 520 285 658 550 42 80 97 234 107 296 45 291 6 576 -107 779 -157
282 -398 449 -843 585 -105 32 -475 131 -529 141 -110 20 -404 118 -499 166
-66 33 -150 107 -174 153 -46 89 -42 196 11 287 45 76 205 168 337 192 19 3
46 9 60 12 14 3 88 7 165 9 351 8 545 -82 651 -302 19 -40 37 -80 39 -90 2
-10 11 -42 19 -71 16 -59 16 -59 16 -71 0 -8 45 -8 260 3 58 3 175 9 260 12
147 7 192 10 233 13 13 1 16 7 13 24 -3 12 -8 55 -11 95 -3 40 -11 85 -16 100
-6 15 -10 28 -9 30 3 5 -12 67 -27 112 -61 188 -194 376 -354 503 -147 117
-418 225 -634 252 -27 4 -61 9 -75 11 -32 6 -368 22 -373 18z"/>
</g>
</svg>
